<svg width="45" height="52" viewBox="0 0 45 52" fill="none" xmlns="http://www.w3.org/2000/svg">
<path d="M1 13.3138L10.7858 7.6523L22.2842 1L32.9263 7.15692L43.5684 13.3138V24.9753V38.1862L33.4563 44.0364L22.2842 50.5L11.6421 44.3431L1 38.1862V26.3616V13.3138Z" fill="#1F3BB3"/>
<path d="M10.7858 7.6523L1 13.3138V26.3616M10.7858 7.6523L22.2842 1L32.9263 7.15692M10.7858 7.6523V19.3484M10.7858 31.9885L1 26.3616M10.7858 31.9885V19.3484M10.7858 31.9885L21.7949 38.593M1 26.3616V38.1862L11.6421 44.3431M11.6421 44.3431L22.2842 50.5L33.4563 44.0364M11.6421 44.3431L21.7949 38.593M33.4563 31.9885V44.0364M33.4563 31.9885V19.2025M33.4563 31.9885L21.7949 38.593M33.4563 44.0364L43.5684 38.1862V24.9753M32.9263 7.15692L43.5684 13.3138V24.9753M32.9263 7.15692L22.2842 12.8245M22.2842 12.8245L10.7858 19.3484M22.2842 12.8245L33.4563 19.2025M43.5684 24.9753L33.4563 19.2025" stroke="white"/>
<path d="M11 19.2191L16.0575 16.3597L22 13L27.5 16.1096L33 19.2191V25.1087V31.7809L27.7739 34.7356L22 38L16.5 34.8904L11 31.7809V25.8089V19.2191Z" fill="white"/>
<path d="M16.0575 16.3597L11 19.2191V25.8089M16.0575 16.3597L22 13L27.5 16.1096M16.0575 16.3597V22.2669M16.0575 28.6507L11 25.8089M16.0575 28.6507V22.2669M16.0575 28.6507L21.7471 31.9864M11 25.8089V31.7809L16.5 34.8904M16.5 34.8904L22 38L27.7739 34.7356M16.5 34.8904L21.7471 31.9864M27.7739 28.6507V34.7356M27.7739 28.6507V22.1932M27.7739 28.6507L21.7471 31.9864M27.7739 34.7356L33 31.7809V25.1087M27.5 16.1096L33 19.2191V25.1087M27.5 16.1096L22 18.972M22 18.972L16.0575 22.2669M22 18.972L27.7739 22.1932M33 25.1087L27.7739 22.1932" stroke="white"/>
</svg>
