<svg width="208" height="47" viewBox="0 0 208 47" fill="none" xmlns="http://www.w3.org/2000/svg">
<path d="M9.73563 7.77877L1 12.6969V24.0313M9.73563 7.77877L20 2L29.5 7.34843M9.73563 7.77877V17.939M9.73563 28.9193L1 24.0313M9.73563 28.9193V17.939M9.73563 28.9193L19.5632 34.6565M1 24.0313V34.3031L10.5 39.6516M10.5 39.6516L20 45L29.9732 39.3852M10.5 39.6516L19.5632 34.6565M29.9732 28.9193V39.3852M29.9732 28.9193V17.8123M29.9732 28.9193L19.5632 34.6565M29.9732 39.3852L39 34.3031V22.827M29.5 7.34843L39 12.6969V22.827M29.5 7.34843L20 12.2718M20 12.2718L9.73563 17.939M20 12.2718L29.9732 17.8123M39 22.827L29.9732 17.8123" stroke="#1F3BB3" stroke-width="2"/>
<path d="M67.76 34H64.25V24.7H53.51V34H50V12.16H53.51V21.37H64.25V12.16H67.76V34ZM72.4098 23.11C72.4098 21.11 72.9098 19.26 73.9098 17.56C74.9098 15.84 76.2598 14.47 77.9598 13.45C79.6798 12.43 81.5498 11.92 83.5698 11.92C85.5698 11.92 87.4198 12.43 89.1198 13.45C90.8398 14.47 92.2098 15.84 93.2298 17.56C94.2498 19.28 94.7598 21.13 94.7598 23.11C94.7598 25.13 94.2498 26.99 93.2298 28.69C92.2298 30.39 90.8698 31.74 89.1498 32.74C87.4298 33.74 85.5698 34.24 83.5698 34.24C81.5498 34.24 79.6798 33.75 77.9598 32.77C76.2598 31.77 74.9098 30.42 73.9098 28.72C72.9098 27.02 72.4098 25.15 72.4098 23.11ZM76.0098 23.11C76.0098 24.53 76.3498 25.83 77.0298 27.01C77.7098 28.19 78.6298 29.13 79.7898 29.83C80.9698 30.53 82.2598 30.88 83.6598 30.88C85.0398 30.88 86.2998 30.54 87.4398 29.86C88.5798 29.16 89.4798 28.22 90.1398 27.04C90.8198 25.84 91.1598 24.53 91.1598 23.11C91.1598 21.69 90.8198 20.38 90.1398 19.18C89.4598 17.98 88.5398 17.03 87.3798 16.33C86.2198 15.63 84.9498 15.28 83.5698 15.28C82.1698 15.28 80.8898 15.63 79.7298 16.33C78.5898 17.03 77.6798 17.98 76.9998 19.18C76.3398 20.38 76.0098 21.69 76.0098 23.11ZM102.934 12.16V30.64H113.704V34H99.4238V12.16H102.934ZM121.83 12.16V30.64H132.6V34H118.32V12.16H121.83ZM148.437 28.87H140.487L138.387 34H134.937L144.597 11.26H144.807L154.467 34H150.447L148.437 28.87ZM147.267 25.87L144.537 18.97L141.717 25.87H147.267ZM177.483 12.16V34.78H177.393L161.643 19.51L161.733 34H158.193V11.41H158.373L174.063 26.86L174.003 12.16H177.483ZM183.506 12.16H189.716C192.456 12.16 194.716 12.7 196.496 13.78C198.296 14.86 199.606 16.25 200.426 17.95C201.246 19.65 201.656 21.46 201.656 23.38C201.656 25.5 201.156 27.37 200.156 28.99C199.176 30.59 197.856 31.83 196.196 32.71C194.536 33.57 192.726 34 190.766 34H183.506V12.16ZM190.136 30.64C191.696 30.64 193.066 30.35 194.246 29.77C195.446 29.19 196.376 28.34 197.036 27.22C197.716 26.08 198.056 24.72 198.056 23.14C198.056 21.42 197.686 19.99 196.946 18.85C196.226 17.69 195.296 16.84 194.156 16.3C193.036 15.76 191.876 15.49 190.676 15.49H187.016V30.64H190.136Z" fill="black"/>
</svg>
